<svg version="1.1" xmlns="http://www.w3.org/2000/svg" xmlns:xlink="http://www.w3.org/1999/xlink" width="57.91098" height="57.71058" viewBox="0,0,57.91098,57.71058"><g transform="translate(-211.04451,-151.14471)"><g data-paper-data="{&quot;isPaintingLayer&quot;:true}" fill-rule="nonzero" stroke="#000000" stroke-linejoin="miter" stroke-miterlimit="10" stroke-dasharray="" stroke-dashoffset="0" style="mix-blend-mode: normal"><path d="M267.95549,180c0,15.38405 -12.5161,27.85529 -27.95549,27.85529c-15.43939,0 -27.95549,-12.47124 -27.95549,-27.85529c0,-15.38405 12.5161,-27.85529 27.95549,-27.85529c15.43939,0 27.95549,12.47124 27.95549,27.85529z" fill="#d0f6ff" stroke-width="2" stroke-linecap="butt"/><path d="M265.91668,189.52224c0,0.71462 -2.35036,5.6291 -6.46555,9.5839c-2.69263,2.58768 -6.30749,5.16884 -10.34724,6.82727c-2.90785,1.19376 -6.58167,1.44994 -9.93722,1.44994c-15.14181,0 -24.25,-15.56455 -24.25,-17.08333c0,-1.51879 10.2193,4.08333 25.36111,4.08333c0.26192,0 1.41142,-3.11338 1.67067,-3.11785c14.72767,-0.25354 23.96823,-3.23578 23.96823,-1.74326z" fill="#914c00" stroke-width="0.5" stroke-linecap="butt"/><path d="M265.72222,189.61667c0,0.50695 -1.93584,2.96875 -5.3814,4.17943c-2.74463,0.96438 -5.77208,-0.98917 -8.19066,0.31361c-2.21985,1.19573 -0.12476,3.90445 -2.34142,4.5311c-2.07981,0.58796 -1.67546,-2.38053 -3.78364,-2.09507c-0.75278,0.10193 -1.08004,2.44466 -1.77372,1.64951c-0.49372,-0.56594 -1.33752,-4.31137 -1.90992,-4.40761c-0.94058,-0.15813 -2.28534,2.13996 -3.06227,2.15098c-0.5321,0.00754 -2.29209,-0.76639 -2.83475,-0.76639c-1.36576,0 -2.27363,2.95487 -3.59609,2.87181c-9.69985,-0.60917 -18.45948,-7.81351 -18.45948,-9.64959c0,-2.08641 9.22791,-1.44444 20.61111,-1.44444c4.36502,0 10.0306,-0.87875 15.35745,-0.47458c8.56464,0.64983 15.36477,1.85489 15.36477,3.14124z" fill="#00a52b" stroke-width="0.5" stroke-linecap="butt"/><path d="M220.94445,188.03333v-14.88889c0,0 3.49419,-1.52204 5.10932,-1.50429c1.74516,0.01918 4.89068,1.6154 4.89068,1.6154l0.11111,14.77778c0,0 -3.65948,1.22222 -5.33334,1.22222c-1.38029,0 -4.77777,-1.22222 -4.77777,-1.22222z" fill="#ffffff" stroke-width="0.5" stroke-linecap="butt"/><path d="M231.06935,188.1046v-11.18237c0,0 6.16653,0.50594 9.03961,0.51782c3.10439,0.01283 9.39104,-0.33238 9.39104,-0.33238l-0.22222,10.77471c0,0 -5.6208,1.15096 -8.59834,1.15096c-2.45534,0 -9.61009,-0.92874 -9.61009,-0.92874z" fill="#ffffff" stroke-width="0.5" stroke-linecap="butt"/><path d="M249.16667,188.03333l0.44445,-14.77778c0,0 3.04975,-1.63315 4.66488,-1.6154c1.74516,0.01918 5.00179,1.6154 5.00179,1.6154v14.77778c0,0 -3.65948,1.22222 -5.33334,1.22222c-1.38029,0 -4.77777,-1.22222 -4.77777,-1.22222z" fill="#ffffff" stroke-width="0.5" stroke-linecap="butt"/><path d="M221.00447,178.42643l0.17421,9.77172c0,0 -2.2748,0.24857 -3.13367,0.16192c-0.73179,-0.07383 -1.6996,-0.64954 -1.6996,-0.64954c0,0 -0.30546,-2.57452 0.48883,-4.74735c0.47091,-1.28822 1.6045,-2.40225 1.89716,-3.03671c0.60226,-1.30562 1.92865,-1.56957 1.92865,-1.56957z" fill="#ffffff" stroke-width="0.5" stroke-linecap="butt"/><path d="M259.75293,178.13467c0,0 1.32639,0.26395 1.92865,1.56957c0.34485,0.74759 1.23935,1.68287 1.88552,3.49551c0.82718,2.32039 0.94491,5.62188 0.94491,5.62188c0,0 -1.96781,-0.20206 -2.6996,-0.12823c-0.85886,0.08665 -2.57811,-0.71748 -2.57811,-0.71748l0.17421,-9.77171z" data-paper-data="{&quot;index&quot;:null}" fill="#ffffff" stroke-width="0.5" stroke-linecap="butt"/><path d="M230.98602,178.4553v-3.94974c0,0 6.16652,0.1787 9.03961,0.1829c3.10439,0.00453 9.39104,-0.1174 9.39104,-0.1174l-0.22222,3.80575c0,0 -5.6208,0.40653 -8.59834,0.40653c-2.45534,0 -9.61008,-0.32804 -9.61008,-0.32804z" fill="#ffffe2" stroke-width="0.5" stroke-linecap="butt"/><path d="M238.11111,188.50556l-0.08333,-5.41666c0,0 1.96221,-1.08334 2.91666,-1.08334c0.87129,0 2,0.66667 2,0.66667c0,0 0.91666,0.44714 0.91666,0.66666c0,0.82722 -0.25,5.16666 -0.25,5.16666c0,0 -1.81211,0.5 -2.66666,0.5c-0.96526,0 -2.83334,-0.5 -2.83334,-0.5z" fill="#bff6ff" stroke-width="0.5" stroke-linecap="butt"/><path d="M241.77778,182.17223v6.5" fill="none" stroke-width="0.5" stroke-linecap="round"/><path d="M239.15281,188.34004l-0.07149,-5.50944" fill="none" stroke-width="0.5" stroke-linecap="round"/><path d="M240.86111,181.92223v-0.75" fill="none" stroke-width="0.5" stroke-linecap="round"/></g></g></svg>